<?xml version="1.0" encoding="UTF-8"?>
<svg id="Layer_2" data-name="Layer 2" xmlns="http://www.w3.org/2000/svg" viewBox="0 0 469.37 263.41">
  <defs>
    <style>
      .cls-1 {
        fill: #fd792e;
      }

      .cls-2 {
        fill: #fcf8f1;
      }

      .cls-3 {
        fill: #382c5e;
      }
    </style>
  </defs>
  <g id="Layer_1-2" data-name="Layer 1">
    <g>
      <rect class="cls-2" width="469.37" height="260.99" rx="19.81" ry="19.81"/>
      <path class="cls-3" d="m457.09,187.92c-9.19-1.53-18.4-2.95-27.65-4.09-18.39-2.26-37-3.41-55.5-1.94-1.85.15-3.7.32-5.54.52-14.4,1.56-28.65,4.78-43.14,4.96-15.2.18-30.22-3-45.37-4.28-34.32-2.89-68.5,3.8-102.82,2.92-30.46-.78-59.52-13.34-90.27-10.61-6.6.59-13.08,2.22-18.68,5.79-20.57,13.12-37.61,47.52-43.94,81.8h425.38c10.94,0,19.81-8.87,19.81-19.81v-53.15c-3.98-.03-8.47-1.48-12.28-2.12Z"/>
      <path class="cls-1" d="m111.06,233.75c-2.39-8.61-4.83-12.68-4.74-21.3.1-9.98,3.45-13.51,2.96-24.85-.2-4.58-.45-10.62-3.56-16.33-4.51-8.3-12.3-10.88-18.37-12.78-11.03-3.46-15.42-.7-28.43-1.75-10.7-.86-13.56-3.2-25.5-6.06-9.28-2.22-22.14-5.3-33.43-5.03v94.04c0,13.11,8.87,23.74,19.81,23.74h95.64c-.12-9.78-2.06-21.28-4.39-29.67Z"/>
      <path class="cls-1" d="m66.35,54.54c-.08,0-.12.06-.15.11-.69.97-1.66,1.47-2.81,1.65-1.76.28-3.24-.24-4.37-1.64-.84-1.04-.86-2.23-.54-3.46.23-.89.6-1.73.88-2.61.51-1.64.89-3.31.94-5.04.03-.9.14-1.79.12-2.69-.05-2.03-.11-4.06-.69-6.03-.35-1.17-.15-2.34.15-3.49.54-2.11,1.54-4.01,2.64-5.87.56-.95,1.22-1.84,1.75-2.81.8-1.47,1.24-3.07,1.61-4.69.38-1.66.67-3.34,1.17-4.97.42-1.38,1.05-2.61,2.24-3.5,1.14-.86,2.43-1.37,3.82-1.64.88-.17,1.78-.27,2.67-.26,1.64.03,3.23.37,4.76.97.53.21.97.55,1.29,1.03.94,1.44,2.01,2.81,2.63,4.45.52,1.37.88,2.79.79,4.25-.09,1.65-.56,3.22-1.23,4.73-.45,1.03-1.05,1.94-1.89,2.69-.62.56-1.32.96-2.13,1.19-.62.18-1.23.38-1.84.58-.48.16-.77.48-.89,1-.34,1.54-.07,2.97.69,4.33.13.23.3.43.51.59,1.39,1.06,2.5,2.39,3.6,3.72,2.43,2.95,4.64,6.07,7.05,9.03.54.66,1.14,1.26,1.83,1.78,1.02.76,1.57.66,2.25-.41.52-.82.85-1.72,1.21-2.61,1.65-4.03,3.29-8.07,4.93-12.12.4-.99.81-1.99.93-3.06.12-1.04.25-2.08.53-3.09.2-.72.42-1.43.81-2.07.43-.7,1.01-1.22,1.88-1.25.84-.03,1.44.4,1.73,1.19.26.73.29,1.47.19,2.23-.2,1.47-.48,2.94-1.23,4.22-.89,1.51-1.16,3.19-1.57,4.84-.98,3.93-1.92,7.87-3.21,11.71-.66,1.96-1.4,3.88-2.37,5.72-.47.89-1.08,1.67-1.85,2.32-.87.72-1.87.89-2.96.67-1.77-.36-3.28-1.23-4.73-2.26-1.36-.97-2.61-2.05-3.76-3.27-.16-.17-.25-.17-.37.06-.39.74-.83,1.46-1.41,2.08-.91.96-1.28,2.19-1.6,3.44-.24.93-.3,1.87-.4,2.82-.39,3.84-.36,7.69-.3,11.54.05,3.39.09,6.78.12,10.17.02,1.67.01,3.35.04,5.02.03,1.76,0,3.53-.1,5.28-.1,2.02-.24,4.03-.41,6.05-.12,1.49-.28,2.98-.37,4.47-.09,1.36-.31,2.71-.41,4.07-.09,1.2-.24,2.39-.36,3.59-.13,1.33-.27,2.65-.41,3.97-.12,1.14-.25,2.28-.37,3.42-.14,1.21-.28,2.43-.41,3.64-.13,1.15-.25,2.3-.38,3.45-.14,1.23-.28,2.45-.42,3.68-.12,1.11-.25,2.21-.37,3.32-.14,1.26-.28,2.52-.42,3.78-.13,1.18-.25,2.37-.38,3.55-.14,1.32-.28,2.65-.43,3.97-.09.8-.11,1.61-.2,2.42-.18,1.65-.26,3.31-.33,4.97-.02.42.02.85.05,1.28.04.51.41.8.77,1.09.95.75,2.05,1.15,3.19,1.47.82.23,1.65.44,2.43.8.74.34,1.33.82,1.45,1.68.13.92-.2,1.88-1.14,2.33-.9.43-1.88.48-2.85.44-1.01-.05-2.02-.17-3.03-.3-.71-.09-1.42-.24-2.14-.3-.88-.06-1.76-.16-2.64-.24-.76-.07-1.52-.2-2.22-.53-1.1-.52-1.54-1.42-1.37-2.63.22-1.63.59-3.24.82-4.87.19-1.35.3-2.71.33-4.08.06-2.76.13-5.51.17-8.27.02-1.83.02-3.65-.03-5.48-.05-1.99-.13-3.98-.27-5.96-.11-1.5-.24-3-.41-4.5-.3-2.51-.7-5.01-1.06-7.52-.32-2.16-.6-4.32-.87-6.49-.26-2.06-.57-4.11-.89-6.15-.55-3.47-1.23-6.92-1.83-10.38-.29-1.7-.53-3.41-.69-5.13-.31-3.19.28-6.2,1.67-9.06,1.26-2.59,2.07-5.33,2.67-8.13.27-1.27.42-2.56.54-3.85.12-1.3.19-2.6.17-3.9-.02-1.23-.15-2.46-.22-3.7-.05-.81-.16-1.61-.22-2.41,0-.05,0-.11-.05-.14Z"/>
      <path class="cls-1" d="m78.93,73.99s-.03,0-.05,0c0-.27,0-.55,0-.82,0-1.25,0-2.5-.01-3.74,0-.42-.02-.43-.43-.32-.54.14-1.09.24-1.64.32-1.9.28-3.8.18-5.69.02-1.29-.11-2.58-.3-3.85-.56-.3-.06-.39.03-.46.32-.6,2.79-1.55,5.46-2.76,8.04-.59,1.27-1.05,2.59-1.28,3.98-.23,1.39-.29,2.79-.2,4.18.12,1.84.41,3.67.73,5.48.43,2.44.87,4.88,1.31,7.31.42,2.34.8,4.69,1.1,7.05.29,2.24.59,4.48.91,6.72.29,2.06.59,4.13.9,6.19.27,1.77.5,3.55.67,5.33.21,2.14.33,4.29.4,6.44.05,1.75.08,3.5.09,5.25.02,3.59-.11,7.18-.19,10.76-.04,1.76-.25,3.48-.52,5.21-.18,1.18-.41,2.34-.61,3.51-.15.9.14,1.43.95,1.84.8.41,1.68.47,2.55.52,1.48.09,2.95.31,4.42.51,1.26.17,2.52.28,3.79.23.49-.02.95-.15,1.38-.37.47-.24.71-.63.73-1.16.02-.53-.18-.93-.64-1.2-.26-.15-.52-.29-.79-.39-.74-.27-1.49-.5-2.24-.73-1.13-.34-2.24-.75-3.17-1.51-.41-.33-.82-.68-.94-1.22-.09-.39-.13-.79-.14-1.2-.02-.58.05-1.16.08-1.74.04-.87.11-1.74.17-2.62.06-.76.17-1.52.2-2.28.05-1.08.22-2.15.3-3.23.1-1.33.3-2.65.43-3.97.1-1.12.24-2.24.36-3.35.18-1.71.38-3.43.57-5.14.12-1.04.25-2.08.37-3.12.12-1.04.23-2.08.34-3.12.12-1.13.24-2.26.37-3.38.14-1.27.28-2.54.42-3.81.1-.94.2-1.89.3-2.83.07-.68.15-1.37.23-2.05.1-1,.2-2,.3-3,.07-.73.17-1.45.22-2.18.07-1.1.21-2.19.3-3.29.11-1.4.23-2.81.36-4.21.1-1.03.12-2.07.21-3.11.14-1.58.22-3.16.24-4.75.05-4.56-.01-9.13-.07-13.69,0-.37,0-.74,0-1.12Z"/>
      <path class="cls-1" d="m74.01,68.79c.79,0,1.57.01,2.36-.07.72-.08,1.42-.21,2.12-.41.23-.07.34-.2.33-.45,0-.52.01-1.05.02-1.57.04-2.19.04-4.37.22-6.56.1-1.23.23-2.45.52-3.66.35-1.47.87-2.84,1.92-3.96.46-.5.84-1.06,1.17-1.66.26-.48.26-.53-.1-.92-.36-.39-.73-.79-1.1-1.17-1.58-1.59-3.17-3.17-4.69-4.82-.22-.24-.12-.37.07-.53.16-.14.27-.3.5-.05,1.66,1.76,3.33,3.51,5,5.25,1.48,1.54,2.91,3.13,4.61,4.43,1.41,1.08,2.86,2.09,4.57,2.65,1.42.47,2.7.36,3.7-.9.07-.09.15-.16.22-.24.85-1.02,1.39-2.22,1.92-3.42,1.32-3.03,2.2-6.22,3.03-9.41.64-2.44,1.22-4.89,1.85-7.33.3-1.17.54-2.37,1.29-3.37.07-.09.1-.22.15-.33.35-.86.58-1.76.77-2.67.18-.84.32-1.7.08-2.56-.12-.42-.29-.78-.75-.91-.5-.13-.87.09-1.19.45-.23.26-.41.57-.56.89-.54,1.14-.7,2.38-.89,3.61-.14.86-.23,1.72-.56,2.55-1.1,2.8-2.21,5.59-3.36,8.37-.92,2.24-1.85,4.49-2.78,6.72-.29.7-.62,1.38-1.17,1.92-.55.55-1.2.73-1.95.41-.59-.25-1.11-.61-1.56-1.06-.77-.76-1.46-1.6-2.13-2.45-2.1-2.67-4.09-5.41-6.25-8.02-1.07-1.29-2.13-2.58-3.49-3.6-.32-.24-.56-.55-.76-.9-.75-1.35-.96-2.79-.77-4.31.14-1.13.73-1.84,1.85-2.11.32-.08.63-.2.95-.26,1.63-.3,2.77-1.26,3.6-2.66.46-.78.82-1.59,1.06-2.46.35-1.28.66-2.55.57-3.9-.15-2.09-.94-3.93-2.08-5.65-.1-.16-.19-.16-.34-.05-.48.38-.98.74-1.46,1.11-1.08.83-2.04,1.76-2.77,2.94-1.32,2.13-1.95,4.39-1.6,6.9.18,1.3-.03,2.54-.82,3.65-.82,1.15-1.67,2.27-2.34,3.53-.41.76-.68,1.55-.61,2.44.09,1.04.31,2.05.45,3.08.17,1.29.05,2.5-.65,3.63-.19.31-.37.62-.5.96-.19.47-.42.96-.32,1.49.2,1.06.26,2.12.29,3.19.02,1.04-.09,2.07-.47,3.06-.47,1.23-1.33,2.14-2.33,2.95-.58.47-1.14.95-1.59,1.56-.24.32-.36.67-.3,1.07.25,1.52.45,3.04.53,4.58.08,1.52.2,3.03.14,4.55-.07,1.81-.19,3.62-.54,5.41-.04.23,0,.35.28.4,2.2.39,4.4.69,6.64.65Z"/>
      <path class="cls-3" d="m82.79,11.08c-1.57,1.37-3.29,2.32-4.62,4-1.22,1.55-2.09,3.43-2.21,5.39-.07,1.03.07,2.05.06,3.08-.04,3.39-3.4,5.08-3.83,8.28-.13.95.09,1.92.27,2.86.21,1.12.35,2.29.04,3.38-.24.84-.73,1.59-1.02,2.42-.77,2.2.2,4.39-.22,6.6-.06.32-.16.81-.42,1.42-.84,1.92-2.79,2.6-3.84,4.29-.48.78-.62,1.73-1.09,2.52-.56.95-1.56,1.59-2.63,1.84-2.03.47-4.58-.53-5.35-2.58-.35-.94-.17-1.8,0-2.59.17-.78.4-1.29.58-1.73.47-1.14.65-2.02,1.03-3.78.84-3.96.55-8.42-.12-10.29-.06-.16-.24-.66-.34-1.35-.1-.71-.08-1.42.09-2.32.31-1.71.92-3,1.07-3.33.95-1.98,2.24-3.76,3.23-5.72,1.3-2.58,2.1-5.38,2.7-8.2.28-1.34.53-2.72,1.21-3.91.95-1.67,2.67-2.81,4.51-3.34s3.8-.51,5.71-.27c.98.13,1.98.32,2.86.76,1.16.58,1.66,1.55,2.36,2.56Z"/>
      <path class="cls-2" d="m62.95,75.4c2.19.68,4.91,1.36,8.08,1.78,3.89.51,7.3.49,9.97.3l.17,8c-2.81.69-6.56,1.36-11.02,1.48-3.84.1-7.16-.24-9.77-.67-.07-.46-.15-1.14-.17-1.96-.05-2.64.61-4.56.77-5,.24-.67.63-1.59,1.28-2.63l.71-1.3Z"/>
    </g>
  </g>
</svg>